<svg width="1359" height="338" viewBox="0 0 1359 338" fill="none" xmlns="http://www.w3.org/2000/svg">
<g clip-path="url(#clip0_479_3)">
<path d="M52.2665 39H0V299.604H52.2665V39Z" fill="black"/>
<path d="M156.503 39.0315H104.243V299.636H156.503V39.0315Z" fill="black"/>
<path d="M260.74 39.0315H208.486V299.636H260.74V39.0315Z" fill="black"/>
</g>
<path d="M461 265L414 145.75V265H379.5V85.5H425L477 218.5L529.25 85.5H574.75V265H540.25V144.75L492.75 265H461ZM648.684 100.5C648.684 112.25 639.184 121 625.434 121C611.934 121 602.434 112.25 602.434 100.5C602.434 88.25 611.934 79.5 625.434 79.5C639.184 79.5 648.684 88.25 648.684 100.5ZM643.184 265H608.434V131.5H643.184V265ZM708.857 192.25V265H674.107V131.5H706.107V150.5C715.857 137.25 729.607 129 747.107 129C773.857 129 792.357 146.5 792.357 178.75V265H757.857V190.5C757.857 170.75 750.107 159.75 734.357 159.75C720.607 159.75 708.857 170.75 708.857 192.25ZM935.051 222.25C935.051 250.25 913.801 267.5 875.801 267.5C837.801 267.5 816.551 249.25 813.801 219.5H847.051C847.301 233.25 859.051 242 876.301 242C889.801 242 900.051 237.75 900.051 228.25C900.051 219.75 894.551 216.25 881.801 213.75L857.801 209.25C833.801 205 819.301 191.75 819.301 171C819.301 146.25 840.551 129 873.801 129C907.301 129 930.301 146.75 932.801 175.5H899.551C898.301 162.5 888.551 154.5 873.801 154.5C861.051 154.5 852.551 159.25 852.551 167.75C852.551 175.75 858.051 179 870.051 181.25L895.801 186C921.801 191 935.051 203 935.051 222.25ZM1039.09 231.25V261.5C1030.59 265.75 1022.59 267.5 1012.34 267.5C984.84 267.5 967.59 251.75 967.59 221.75V161.25H940.59V131.5H967.59V92H1002.09V131.5H1040.34V161.25H1002.09V213.75C1002.09 229.25 1009.09 235.5 1021.59 235.5C1028.09 235.5 1034.09 234 1039.09 231.25ZM1096.31 200.25V265H1061.56V131.5H1093.56V157.25C1103.31 140.25 1124.06 130 1145.56 130V166C1116.06 163.75 1096.31 170.75 1096.31 200.25ZM1220.63 267.25C1180.63 267.25 1153.88 239.5 1153.88 197.75C1153.88 158 1181.63 129 1220.13 129C1262.38 129 1290.38 163.25 1284.13 206.75H1189.38C1191.63 228.5 1202.13 240.5 1219.88 240.5C1235.13 240.5 1245.38 233 1249.38 219.75H1283.88C1276.38 250 1253.13 267.25 1220.63 267.25ZM1219.38 154.5C1203.13 154.5 1192.88 165 1189.88 184.75H1247.38C1246.38 166.25 1235.88 154.5 1219.38 154.5ZM1342.41 265H1307.41V85.5H1342.41V265Z" fill="black"/>
<defs>
<clipPath id="clip0_479_3">
<rect width="260.74" height="260.643" fill="white" transform="translate(0 39)"/>
</clipPath>
</defs>
</svg>
